# xmcd CD database file
#
# Track frame offsets:
#	151
#	8002
#	32008
#	51158
#	79006
#	95730
#	110845
#	130943
#	156979
#	168517
#	190621
#	206263
#	227637
#	243321
#
# Disc length: 3341 seconds
#
# Revision: 0
# Processed by: cddbd v1.4PL0 Copyright (c) Steve Scherf et al.
# Submitted via: CDex 1.40Beta9
#
DISCID=b00d0b0e
DTITLE=Skyblues Band - Diminished Reality
DYEAR=1900
DGENRE=Blues
TTITLE0=Hog Wings Jump
TTITLE1=Cold, Cold Feeling
TTITLE2=La La La Lu
TTITLE3=Selfish World Blues
TTITLE4=Package In The Mail
TTITLE5=Backdoor Belle
TTITLE6=Up From Below
TTITLE7=Diminished Reality
TTITLE8=Blue Side Of My Dreams
TTITLE9=Winds Of Love
TTITLE10=Hurtin' You Is Killing Me
TTITLE11=If I Leave This World Tomorrow
TTITLE12=Crossroad Blues
TTITLE13=Untitled
EXTD=ID3G: 0
EXTT0=
EXTT1=
EXTT2=
EXTT3=
EXTT4=
EXTT5=
EXTT6=
EXTT7=
EXTT8=
EXTT9=
EXTT10=
EXTT11=
EXTT12=
EXTT13=
PLAYORDER=
